<?xml version="1.0" encoding="UTF-8"?>
<svg version="1.1" xmlns="http://www.w3.org/2000/svg" width="585" height="427">
<path d="M0 0 C1.26018629 -0.00226556 2.52037258 -0.00453111 3.81874633 -0.00686532 C7.3005971 -0.01295855 10.78242377 -0.01285266 14.26427865 -0.01167095 C18.0258243 -0.01146631 21.78736234 -0.01699169 25.54890442 -0.02172852 C32.91258343 -0.03002207 40.27625444 -0.03278277 47.63993773 -0.03334089 C53.62791771 -0.03381668 59.61589506 -0.03587453 65.60387421 -0.03904152 C82.59511868 -0.04784462 99.58635684 -0.05246144 116.57760361 -0.05171105 C117.49290933 -0.05167109 118.40821506 -0.05163113 119.35125732 -0.05158997 C120.26768555 -0.05154909 121.18411378 -0.0515082 122.12831256 -0.05146609 C136.97655261 -0.05105973 151.82476729 -0.0606275 166.67300001 -0.07472833 C181.93300048 -0.08910541 197.1929886 -0.09599778 212.45299602 -0.09513456 C221.01470814 -0.09480304 229.57639366 -0.09753009 238.13809967 -0.10831261 C245.42822257 -0.11743514 252.71830681 -0.11957848 260.00843295 -0.11280318 C263.72434119 -0.1095468 267.44017533 -0.10944928 271.15607643 -0.11815643 C275.19338062 -0.12751899 279.23051456 -0.12122243 283.26782227 -0.11352539 C284.42971423 -0.11866895 285.5916062 -0.12381252 286.78870702 -0.12911195 C297.01193765 -0.08618915 306.99485606 0.88932153 316.38787842 5.13371277 C317.17807373 5.47144714 317.96826904 5.80918152 318.78240967 6.15715027 C325.20317344 9.09630173 330.60418791 12.89938475 335.38787842 18.13371277 C335.38787842 18.79371277 335.38787842 19.45371277 335.38787842 20.13371277 C336.37787842 20.46371277 337.36787842 20.79371277 338.38787842 21.13371277 C348.42674273 32.88587659 350.70834323 47.60717415 350.6418457 62.55007935 C350.64496568 63.64540326 350.64808567 64.74072718 350.65130019 65.86924273 C350.65922746 69.51075947 350.65297712 73.15210713 350.64666748 76.79362488 C350.64937969 79.41613868 350.65294192 82.03865172 350.6572876 84.66116333 C350.66615057 91.02781643 350.66427336 97.3944222 350.65846232 103.7610771 C350.6539332 108.93901466 350.65333831 114.11693903 350.65550995 119.29487801 C350.65581641 120.03371975 350.65612288 120.7725615 350.65643863 121.5337924 C350.65707813 123.03506275 350.65772656 124.5363331 350.65838382 126.03760345 C350.66407815 140.0939702 350.65754353 154.15031081 350.64678308 168.20667327 C350.63785025 180.24804002 350.63939915 192.2893682 350.64862061 204.33073425 C350.65934232 218.33756013 350.66352696 232.34436312 350.65739608 246.35119253 C350.65675903 247.84703894 350.65613029 249.34288535 350.65550995 250.83873177 C350.6552014 251.57457991 350.65489285 252.31042805 350.65457495 253.06857462 C350.65285357 258.23527625 350.65575109 263.40196327 350.66046906 268.56866264 C350.66668928 275.53315569 350.66221161 282.49757499 350.65068054 289.46206093 C350.64804378 292.01293187 350.64878216 294.56380896 350.65320587 297.11467743 C350.65870171 300.606654 350.65177825 304.09840049 350.6418457 307.59036255 C350.64630715 308.59067928 350.65076859 309.59099601 350.65536523 310.62162536 C350.60162992 320.41627576 349.66856049 329.78693282 345.01287842 338.50871277 C344.42764404 339.63019714 343.84240967 340.75168152 343.23944092 341.90715027 C341.39841082 345.11535883 339.57626152 348.15282878 337.38787842 351.13371277 C336.72787842 351.13371277 336.06787842 351.13371277 335.38787842 351.13371277 C335.05787842 352.12371277 334.72787842 353.11371277 334.38787842 354.13371277 C333.72787842 354.13371277 333.06787842 354.13371277 332.38787842 354.13371277 C332.05787842 355.12371277 331.72787842 356.11371277 331.38787842 357.13371277 C318.12973341 369.32311842 299.57701541 371.45435226 282.3706665 371.38768005 C281.11522962 371.39080003 279.85979274 371.39392002 278.56631231 371.39713454 C275.1162715 371.40541153 271.66634266 371.40138996 268.21630168 371.39516211 C264.48208948 371.39060926 260.74789561 371.39763533 257.01368713 371.40312195 C249.71203995 371.41198753 242.41043403 371.41010662 235.10878527 371.40429667 C229.17143264 371.39976899 223.23409153 371.39917205 217.29673767 371.4013443 C216.44979232 371.40165077 215.60284698 371.40195723 214.73023662 371.40227298 C213.0093648 371.40291247 211.28849298 371.4035609 209.56762117 371.40421817 C193.45345798 371.40991316 177.3393176 371.40337663 161.22515815 371.39261743 C147.41626834 371.38368268 133.60741216 371.38523496 119.79852295 371.39445496 C103.73968086 371.40517229 87.68085873 371.40936391 71.62201357 371.40323043 C69.9076821 371.40259337 68.19335064 371.40196463 66.47901917 371.4013443 C65.21398898 371.40088147 65.21398898 371.40088147 63.92340264 371.4004093 C57.99726495 371.39868674 52.07113999 371.40158796 46.14500427 371.40630341 C38.91719029 371.41192851 31.68941972 371.41036163 24.46161067 371.39974192 C20.77808169 371.39450708 17.09462493 371.39239089 13.41109657 371.39904022 C9.40903237 371.40615499 5.40714851 371.39762587 1.40509033 371.38768005 C-0.32198206 371.39437222 -0.32198206 371.39437222 -2.0839448 371.40119958 C-18.95258243 371.3201804 -35.85574668 367.9268512 -48.61212158 356.13371277 C-48.61212158 355.47371277 -48.61212158 354.81371277 -48.61212158 354.13371277 C-49.60212158 353.80371277 -50.59212158 353.47371277 -51.61212158 353.13371277 C-51.61212158 352.47371277 -51.61212158 351.81371277 -51.61212158 351.13371277 C-52.27212158 351.13371277 -52.93212158 351.13371277 -53.61212158 351.13371277 C-63.70949434 338.05189486 -66.93857895 323.98160448 -66.86608887 307.75531006 C-66.86920885 306.66406969 -66.87232883 305.57282933 -66.87554336 304.44852108 C-66.8834702 300.82082365 -66.87722045 297.19329597 -66.87091064 293.56559753 C-66.87362288 290.95293582 -66.87718512 288.34027487 -66.88153076 285.72761536 C-66.89039351 279.38502567 -66.88851662 273.04248349 -66.88270548 266.69989199 C-66.87817627 261.54150056 -66.87758152 256.38312239 -66.87975311 251.22472954 C-66.88005958 250.48866315 -66.88036604 249.75259676 -66.8806818 248.99422533 C-66.88132129 247.49859198 -66.88196972 246.00295863 -66.88262698 244.50732528 C-66.88832125 230.50389362 -66.8817868 216.50048819 -66.87102625 202.49706083 C-66.86209343 190.50117581 -66.86364232 178.50532951 -66.87286377 166.50944519 C-66.88358561 152.555357 -66.88777005 138.60129178 -66.88163924 124.64720005 C-66.88100219 123.15697062 -66.88037345 121.6667412 -66.87975311 120.17651176 C-66.87944456 119.44342773 -66.87913601 118.7103437 -66.87881811 117.955045 C-66.87709677 112.80788001 -66.87999418 107.66072969 -66.88471222 102.51356697 C-66.89093261 95.57533865 -66.88645449 88.63718435 -66.87492371 81.69896317 C-66.87228703 79.15776757 -66.87302519 76.61656581 -66.87744904 74.0753727 C-66.8829452 70.59653302 -66.87602103 67.11792425 -66.86608887 63.63909912 C-66.87055031 62.64267334 -66.87501175 61.64624756 -66.87960839 60.61962706 C-66.8228478 50.31144966 -65.64809436 40.7593509 -60.67462158 31.63371277 C-60.32721924 30.95824402 -59.97981689 30.28277527 -59.62188721 29.58683777 C-57.87342344 26.2413779 -56.13910745 22.95587363 -53.61212158 20.13371277 C-52.95212158 20.13371277 -52.29212158 20.13371277 -51.61212158 20.13371277 C-51.34141846 19.53300964 -51.07071533 18.93230652 -50.79180908 18.31340027 C-46.05755415 9.56600209 -34.3264112 5.16658051 -25.36212158 2.32121277 C-17.04616697 -0.11164629 -8.584742 -0.01135478 0 0 Z " fill="#2F6253" transform="translate(150.61212158203125,27.866287231445313)"/>
<path d="M0 0 C0 0.66 0 1.32 0 2 C0.94359375 1.94779297 0.94359375 1.94779297 1.90625 1.89453125 C8.0444345 1.70040192 12.43014216 2.3669763 18 5 C18.495 5.99 18.495 5.99 19 7 C20.75657738 8.00840553 22.5151124 9.01397683 24.29296875 9.984375 C26.16430113 11.09775353 27.46815301 12.46815301 29 14 C29.680625 14.144375 30.36125 14.28875 31.0625 14.4375 C31.701875 14.623125 32.34125 14.80875 33 15 C33.4021875 15.99 33.4021875 15.99 33.8125 17 C34.4003125 17.99 34.4003125 17.99 35 19 C36.6396875 19.2165625 36.6396875 19.2165625 38.3125 19.4375 C42.8312429 20.12679977 44.16951052 21.503513 47 25 C47.33 25.99 47.66 26.98 48 28 C49.3921875 27.87625 49.3921875 27.87625 50.8125 27.75 C51.864375 27.8325 52.91625 27.915 54 28 C55.02028865 29.31787285 56.01971384 30.65210653 57 32 C58.99285937 32.37366113 60.99363529 32.70740515 63 33 C63.45761719 33.45890625 63.91523438 33.9178125 64.38671875 34.390625 C68.24587076 38.24043282 74.32394981 39.88441033 79.625 40.25 C80.40875 40.1675 81.1925 40.085 82 40 C82.45375 39.030625 82.9075 38.06125 83.375 37.0625 C85 34 85 34 87 33 C87.40729228 30.67843403 87.74438677 28.3431213 88 26 C89.79008467 25.77848451 91.58218162 25.57317787 93.375 25.375 C94.37273437 25.25898437 95.37046875 25.14296875 96.3984375 25.0234375 C97.25695312 25.01570313 98.11546875 25.00796875 99 25 C101 27 101 27 101.8125 30 C102.68534251 33.21157118 102.68534251 33.21157118 105.5625 34.1875 C106.366875 34.455625 107.17125 34.72375 108 35 C108.33 35.99 108.66 36.98 109 38 C111.03277473 38.95117358 111.03277473 38.95117358 113.4375 39.5625 C117.80269058 40.80269058 117.80269058 40.80269058 120 43 C121.0725 43.165 122.145 43.33 123.25 43.5 C126.07261161 44.21153334 126.90442966 44.87279411 128.6875 47.24609375 C129.7092991 49.0061427 130.69560574 50.78740532 131.640625 52.58984375 C133.38030771 55.69881812 133.38030771 55.69881812 136 58 C139.19245998 58.58092992 139.19245998 58.58092992 142.6875 58.6875 C143.86699219 58.75324219 145.04648437 58.81898438 146.26171875 58.88671875 C147.16535156 58.92410156 148.06898438 58.96148437 149 59 C149 59.99 149 60.98 149 62 C149.99 62.33 150.98 62.66 152 63 C152 63.99 152 64.98 152 66 C152.94875 66.2475 153.8975 66.495 154.875 66.75 C158 68 158 68 159.4375 69.875 C160.12163458 72.4595084 160.07245237 73.54868029 159 76 C158.34 76.598125 157.68 77.19625 157 77.8125 C154.33235656 80.73023501 154.2971369 83.13722032 154 87 C155.98 86.34 157.96 85.68 160 85 C161.90423466 86.90423466 161.4259749 90.28473113 161.62109375 92.87109375 C161.82776636 95.20927403 161.82776636 95.20927403 164 97 C164 98.32 164 99.64 164 101 C163.01 101.495 163.01 101.495 162 102 C160.86649466 104.01669827 160.86649466 104.01669827 160 106 C158.35 106 156.7 106 155 106 C155.33 107.32 155.66 108.64 156 110 C156.99 110 157.98 110 159 110 C158.67 113.3 158.34 116.6 158 120 C158.928125 119.938125 159.85625 119.87625 160.8125 119.8125 C164 120 164 120 165.875 121.5 C166.431875 122.2425 166.431875 122.2425 167 123 C166.67 123.99 166.34 124.98 166 126 C166.66 126 167.32 126 168 126 C168.268125 126.804375 168.53625 127.60875 168.8125 128.4375 C169.204375 129.283125 169.59625 130.12875 170 131 C170.99 131.33 171.98 131.66 173 132 C173 133.65 173 135.3 173 137 C173.639375 137.2475 174.27875 137.495 174.9375 137.75 C177 139 177 139 177.875 140.8125 C178.0358641 143.62762177 177.19164995 145.476506 176 148 C178.97 148.33 181.94 148.66 185 149 C185 148.34 185 147.68 185 147 C186.32 147 187.64 147 189 147 C188.96519531 147.96421875 188.93039062 148.9284375 188.89453125 149.921875 C188.86746094 151.18515625 188.84039062 152.4484375 188.8125 153.75 C188.76029297 155.62945312 188.76029297 155.62945312 188.70703125 157.546875 C189.01773971 161.20909205 189.63970673 162.3220947 192 165 C191.875 167.125 191.875 167.125 191 169 C188 171 188 171 184 171 C183.938125 171.7425 183.87625 172.485 183.8125 173.25 C182.70510664 176.99810061 181.34169044 178.0092057 178 180 C175.29726074 180.60060872 172.77803278 180.81165879 170 181 C169.67 181.99 169.34 182.98 169 184 C168.175 184.515625 167.35 185.03125 166.5 185.5625 C163.18363944 188.79595154 163.52443054 190.9190255 163.3125 195.3828125 C162.82127576 199.49681554 161.0479748 202.43256002 159 206 C158.34 206 157.68 206 157 206 C156.92652344 206.90492188 156.92652344 206.90492188 156.8515625 207.828125 C156.77679688 208.62734375 156.70203125 209.4265625 156.625 210.25 C156.55539062 211.03890625 156.48578125 211.8278125 156.4140625 212.640625 C155.98492887 215.085877 155.21399362 216.84836903 154 219 C153.34 219 152.68 219 152 219 C151.566875 219.86625 151.566875 219.86625 151.125 220.75 C149.5625 223.875 149.5625 223.875 148 227 C141.8154957 227.531915 138.62435388 226.15853093 133.6875 222.8125 C133.06810547 222.42513672 132.44871094 222.03777344 131.81054688 221.63867188 C128.04663893 219.16618077 126.33095548 217.28124014 125 213 C123.67532254 212.3162955 122.34136367 211.65035814 121 211 C120.505 210.154375 120.01 209.30875 119.5 208.4375 C119.005 207.633125 118.51 206.82875 118 206 C116.9790625 205.7834375 116.9790625 205.7834375 115.9375 205.5625 C115.298125 205.376875 114.65875 205.19125 114 205 C113.71125 204.030625 113.4225 203.06125 113.125 202.0625 C112.75375 201.051875 112.3825 200.04125 112 199 C108.98220128 197.54839062 108.98220128 197.54839062 106 197 C105.690625 197.639375 105.38125 198.27875 105.0625 198.9375 C104 201 104 201 103 202 C101.65984779 202.15582303 100.31241097 202.25044142 98.96484375 202.31640625 C97.75151367 202.37924805 97.75151367 202.37924805 96.51367188 202.44335938 C95.66353516 202.48267578 94.81339844 202.52199219 93.9375 202.5625 C93.08349609 202.60568359 92.22949219 202.64886719 91.34960938 202.69335938 C89.23327963 202.79976702 87.11666187 202.90041731 85 203 C84.67 202.01 84.34 201.02 84 200 C82.7934375 200.0309375 82.7934375 200.0309375 81.5625 200.0625 C79 200 79 200 78 199 C74.1744083 198.79647098 70.35529218 198.65286619 66.52539062 198.5703125 C65.72423828 198.539375 64.92308594 198.5084375 64.09765625 198.4765625 C63.36039307 198.45674316 62.62312988 198.43692383 61.86352539 198.41650391 C60 198 60 198 58 195 C58 194.01 58 193.02 58 192 C57.071875 191.731875 56.14375 191.46375 55.1875 191.1875 C52.24218975 190.09022755 50.84982123 189.46642831 49 187 C49 186.34 49 185.68 49 185 C48.34 185.33 47.68 185.66 47 186 C40.64391691 186.35311573 40.64391691 186.35311573 38.0625 184.9375 C35.59342251 183.81519205 34.56984284 184.11260868 31.9375 184.5625 C28 185 28 185 26 183.6875 C25 182 25 182 25 180 C23.02 180 21.04 180 19 180 C18.67 180.99 18.34 181.98 18 183 C17.31292969 182.95359375 16.62585938 182.9071875 15.91796875 182.859375 C15.01691406 182.82328125 14.11585938 182.7871875 13.1875 182.75 C12.29417969 182.70359375 11.40085937 182.6571875 10.48046875 182.609375 C9.25263672 182.80273438 9.25263672 182.80273438 8 183 C7.30197266 183.97646484 7.30197266 183.97646484 6.58984375 184.97265625 C5 187 5 187 1.9609375 187.57421875 C0.77757812 187.61160156 -0.40578125 187.64898437 -1.625 187.6875 C-2.87925781 187.74292969 -4.13351563 187.79835938 -5.42578125 187.85546875 C-7.19501953 187.92701172 -7.19501953 187.92701172 -9 188 C-10.60609881 188.1468846 -12.21092011 188.31007814 -13.8125 188.5 C-14.5034375 188.57992187 -15.194375 188.65984375 -15.90625 188.7421875 C-17.40724191 188.92701113 -18.90714565 189.1207564 -20.40625 189.3203125 C-21.2003125 189.42085937 -21.994375 189.52140625 -22.8125 189.625 C-23.87404297 189.76808594 -23.87404297 189.76808594 -24.95703125 189.9140625 C-27.17076034 190.00718304 -28.86737036 189.55387314 -31 189 C-33.68149993 189.38567131 -33.68149993 189.38567131 -36 190 C-36 189.34 -36 188.68 -36 188 C-37.22976562 187.96261719 -38.45953125 187.92523438 -39.7265625 187.88671875 C-41.35940401 187.82102972 -42.99221518 187.75458341 -44.625 187.6875 C-45.83736328 187.65366211 -45.83736328 187.65366211 -47.07421875 187.61914062 C-52.08835125 187.39493145 -55.60046736 186.65538135 -60 184 C-60 183.34 -60 182.68 -60 182 C-60.5775 182.350625 -61.155 182.70125 -61.75 183.0625 C-64.45311469 184.18879779 -65.27701175 183.90766275 -68 183 C-71.18467688 182.2834477 -73.68745922 182 -77 182 C-77 180.68 -77 179.36 -77 178 C-76.34 177.67 -75.68 177.34 -75 177 C-75.01160156 176.40832031 -75.02320313 175.81664062 -75.03515625 175.20703125 C-75.04417969 174.41683594 -75.05320313 173.62664062 -75.0625 172.8125 C-75.07410156 172.03519531 -75.08570313 171.25789062 -75.09765625 170.45703125 C-75 168 -75 168 -74.50390625 165.58203125 C-73.92784981 162.63030018 -73.86746667 159.88079737 -73.875 156.875 C-73.87242187 155.84117187 -73.86984375 154.80734375 -73.8671875 153.7421875 C-73.88080119 150.90765695 -73.88080119 150.90765695 -75 148 C-75.680625 147.95875 -76.36125 147.9175 -77.0625 147.875 C-81.37902913 146.58922536 -84.52930965 144.85863699 -87 141 C-87.74258397 134.53775141 -86.49248798 128.46650293 -83 123 C-82.34 123 -81.68 123 -81 123 C-81.02320313 122.38511719 -81.04640625 121.77023438 -81.0703125 121.13671875 C-81.08835938 120.32847656 -81.10640625 119.52023438 -81.125 118.6875 C-81.14820313 117.88699219 -81.17140625 117.08648437 -81.1953125 116.26171875 C-81 114 -81 114 -79 111 C-76.171875 110.0859375 -76.171875 110.0859375 -72.75 109.375 C-71.63109375 109.13523437 -70.5121875 108.89546875 -69.359375 108.6484375 C-68.25078125 108.43445313 -67.1421875 108.22046875 -66 108 C-64.44152344 107.68675781 -64.44152344 107.68675781 -62.8515625 107.3671875 C-55.98653267 106.48319736 -49.2792274 109.48830904 -43 112 C-42.7525 111.401875 -42.505 110.80375 -42.25 110.1875 C-40.81927475 107.68373081 -39.4308418 106.51927612 -37 105 C-36.34 105 -35.68 105 -35 105 C-35.2475 103.6696875 -35.2475 103.6696875 -35.5 102.3125 C-35.335 101.219375 -35.17 100.12625 -35 99 C-33.25390625 97.83984375 -33.25390625 97.83984375 -31.0625 96.75 C-27.9130933 95.03594803 -27.9130933 95.03594803 -26.28125 91.9921875 C-26.03399774 89.31656482 -26.01036264 86.68737856 -26 84 C-25.85128576 82.01317781 -25.70218836 80.02635789 -25.54077148 78.04052734 C-24.75289644 72.36078664 -24.75289644 72.36078664 -26 67 C-26.15725856 62.83264813 -25.98317108 59.05558072 -25 55 C-26.32 54.67 -27.64 54.34 -29 54 C-27.69648907 41.48629504 -27.69648907 41.48629504 -23.24609375 37.3828125 C-21.55362779 36.17244291 -19.78123861 35.07546482 -18 34 C-18.09539062 33.38511719 -18.19078125 32.77023438 -18.2890625 32.13671875 C-18.39992188 31.32847656 -18.51078125 30.52023438 -18.625 29.6875 C-18.79902344 28.48673828 -18.79902344 28.48673828 -18.9765625 27.26171875 C-19 25 -19 25 -17 22 C-17.27034634 19.56282742 -17.27034634 19.56282742 -18 17 C-18.6875 14.375 -18.6875 14.375 -19 12 C-18.34 11.01 -17.68 10.02 -17 9 C-17.26676204 7.01508358 -17.26676204 7.01508358 -18 5 C-18.33965408 3.66826279 -18.67388574 2.33511736 -19 1 C-12.33928512 -1.13645572 -6.89836454 -0.93838047 0 0 Z " fill="#FCFDFD" transform="translate(238,102)"/>
<path d="M0 0 C0.66 0.33 1.32 0.66 2 1 C2 1.99 2 2.98 2 4 C5.465 3.505 5.465 3.505 9 3 C9 4.65 9 6.3 9 8 C9.66 8.33 10.32 8.66 11 9 C4.44672101 8.72694671 0.93069452 6.18788859 -4 2 C-2.125 0.9375 -2.125 0.9375 0 0 Z " fill="#40675C" transform="translate(109,384)"/>
<path d="M0 0 C0.33 1.32 0.66 2.64 1 4 C-1.97 3.505 -1.97 3.505 -5 3 C-5 3.66 -5 4.32 -5 5 C-4.34 5.33 -3.68 5.66 -3 6 C-4.7805219 8.61534535 -6.5556526 10.97453209 -9 13 C-12.875 12.9375 -12.875 12.9375 -16 12 C-15.443125 11.7525 -14.88625 11.505 -14.3125 11.25 C-11.54806595 9.75571133 -9.31546532 8.12772489 -7 6 C-6.855625 5.29875 -6.71125 4.5975 -6.5625 3.875 C-6.376875 3.25625 -6.19125 2.6375 -6 2 C-2.9375 0.75 -2.9375 0.75 0 0 Z " fill="#4A7466" transform="translate(428,271)"/>
<path d="M0 0 C1.98 0 3.96 0 6 0 C6.33 0.99 6.66 1.98 7 3 C8.27875 3.0825 9.5575 3.165 10.875 3.25 C13.1015625 3.51953125 13.1015625 3.51953125 15 4 C16.25 5.9375 16.25 5.9375 17 8 C19.0335948 9.26804566 19.0335948 9.26804566 21 10 C18.6875 10.1875 18.6875 10.1875 16 10 C15.566875 9.54625 15.13375 9.0925 14.6875 8.625 C11.9521648 5.99097351 8.66718774 5.78153181 5 5 C4.67 3.68 4.34 2.36 4 1 C2.68 0.67 1.36 0.34 0 0 Z " fill="#5D7B72" transform="translate(342,136)"/>
<path d="M0 0 C1.75570312 0.01353516 1.75570312 0.01353516 3.546875 0.02734375 C4.43890625 0.03894531 5.3309375 0.05054688 6.25 0.0625 C6.25 0.7225 6.25 1.3825 6.25 2.0625 C4.18939936 2.42755516 2.12640368 2.77910715 0.0625 3.125 C-1.66033203 3.42083984 -1.66033203 3.42083984 -3.41796875 3.72265625 C-6.53648366 4.04072284 -8.74805783 3.87093264 -11.75 3.0625 C-10.75 1.0625 -10.75 1.0625 -9.109375 0.44140625 C-6.04728012 -0.05035402 -3.10003047 -0.0310003 0 0 Z " fill="#597E72" transform="translate(221.75,289.9375)"/>
<path d="M0 0 C0.66 0 1.32 0 2 0 C2.66 2.31 3.32 4.62 4 7 C3.34 7.66 2.68 8.32 2 9 C1.97691403 11.22128555 1.97691403 11.22128555 2.375 13.625 C2.48585937 14.44226563 2.59671875 15.25953125 2.7109375 16.1015625 C2.80632812 16.72804687 2.90171875 17.35453125 3 18 C2.34 18.33 1.68 18.66 1 19 C1 18.34 1 17.68 1 17 C0.34 16.67 -0.32 16.34 -1 16 C-0.91621094 15.37351563 -0.83242187 14.74703125 -0.74609375 14.1015625 C-0.64425781 13.28429687 -0.54242188 12.46703125 -0.4375 11.625 C-0.33308594 10.81289062 -0.22867188 10.00078125 -0.12109375 9.1640625 C0.18237328 6.95100814 0.18237328 6.95100814 -1 5 C-0.34 5 0.32 5 1 5 C0.67 3.35 0.34 1.7 0 0 Z " fill="#4B6E63" transform="translate(218,118)"/>
<path d="M0 0 C0.99 0.66 1.98 1.32 3 2 C2.01 2.66 1.02 3.32 0 4 C-1.24247222 7.09710423 -1.24247222 7.09710423 -2.1875 10.625 C-2.53167969 11.81351563 -2.87585938 13.00203125 -3.23046875 14.2265625 C-3.48441406 15.14179688 -3.73835937 16.05703125 -4 17 C-4.33 17 -4.66 17 -5 17 C-5 14.69 -5 12.38 -5 10 C-4.34 10 -3.68 10 -3 10 C-3.33 7.03 -3.66 4.06 -4 1 C-2.68 0.67 -1.36 0.34 0 0 Z " fill="#45695F" transform="translate(213,138)"/>
<path d="M0 0 C0.99 0.495 0.99 0.495 2 1 C1.67 3.31 1.34 5.62 1 8 C2.98 7.34 4.96 6.68 7 6 C8 7 8 7 8.09765625 9.06640625 C8.08605469 9.89011719 8.07445312 10.71382812 8.0625 11.5625 C8.05347656 12.38878906 8.04445313 13.21507812 8.03515625 14.06640625 C8.02355469 14.70449219 8.01195312 15.34257812 8 16 C7.67 16 7.34 16 7 16 C7 13.69 7 11.38 7 9 C5.35 9.66 3.7 10.32 2 11 C0 9 0 9 -0.1953125 6.8359375 C-0.17210937 6.02382812 -0.14890625 5.21171875 -0.125 4.375 C-0.10695313 3.55773437 -0.08890625 2.74046875 -0.0703125 1.8984375 C-0.04710937 1.27195313 -0.02390625 0.64546875 0 0 Z " fill="#E1F0EC" transform="translate(391,181)"/>
<path d="M0 0 C0.66 0.33 1.32 0.66 2 1 C0.125 4.875 0.125 4.875 -1 6 C-2.34015221 6.15582303 -3.68758903 6.25044142 -5.03515625 6.31640625 C-5.84404297 6.35830078 -6.65292969 6.40019531 -7.48632812 6.44335938 C-8.7615332 6.50233398 -8.7615332 6.50233398 -10.0625 6.5625 C-10.91650391 6.60568359 -11.77050781 6.64886719 -12.65039062 6.69335938 C-14.76672037 6.79976702 -16.88333813 6.90041731 -19 7 C-15.62717724 3.62717724 -10.87590405 4.64350557 -6.28515625 4.5390625 C-2.91954502 4.32585937 -2.91954502 4.32585937 -1.05859375 1.9609375 C-0.70925781 1.31382812 -0.35992187 0.66671875 0 0 Z " fill="#E7F7F2" transform="translate(342,298)"/>
<path d="M0 0 C0.33 0 0.66 0 1 0 C1.48586118 6.31619537 1.48586118 6.31619537 -0.6875 9.375 C-3.19118187 11.13434402 -4.98200506 11.66466723 -8 12 C-8.33 13.32 -8.66 14.64 -9 16 C-9.5 13.8125 -9.5 13.8125 -9 11 C-7.25390625 9.765625 -7.25390625 9.765625 -5.0625 8.5625 C-1.43727395 6.62189322 -1.43727395 6.62189322 0 2.6875 C0 1.800625 0 0.91375 0 0 Z " fill="#CBDCD7" transform="translate(212,190)"/>
<path d="M0 0 C1.5625 1.6875 1.5625 1.6875 3 4 C2.875 6.625 2.875 6.625 2 9 C1.01 9.66 0.02 10.32 -1 11 C-1.02688151 9.35425434 -1.04634123 7.70838587 -1.0625 6.0625 C-1.07410156 5.14597656 -1.08570313 4.22945313 -1.09765625 3.28515625 C-1 1 -1 1 0 0 Z " fill="#52756C" transform="translate(402,289)"/>
<path d="M0 0 C0.33 0.66 0.66 1.32 1 2 C0.00390625 3.9453125 0.00390625 3.9453125 -1.4375 6.125 C-1.91058594 6.84945313 -2.38367188 7.57390625 -2.87109375 8.3203125 C-3.24363281 8.87460937 -3.61617188 9.42890625 -4 10 C-4.66 9.01 -5.32 8.02 -6 7 C-5.01 7 -4.02 7 -3 7 C-3.33 6.01 -3.66 5.02 -4 4 C-2.68 2.68 -1.36 1.36 0 0 Z " fill="#5B7A73" transform="translate(495,364)"/>
<path d="M0 0 C0.33 0 0.66 0 1 0 C1.33 2.64 1.66 5.28 2 8 C2.99 8.33 3.98 8.66 5 9 C4.67 10.98 4.34 12.96 4 15 C3.01 14.67 2.02 14.34 1 14 C1.66 14 2.32 14 3 14 C1.91215032 10.75016865 1.91215032 10.75016865 0 8 C-0.14115161 5.32941149 -0.04247107 2.67567762 0 0 Z " fill="#5C7C72" transform="translate(399,189)"/>
<path d="M0 0 C0.66 0.33 1.32 0.66 2 1 C2 1.99 2 2.98 2 4 C2.99 4.33 3.98 4.66 5 5 C4.01 5.33 3.02 5.66 2 6 C-1.1875 4.0625 -1.1875 4.0625 -4 2 C-2.125 0.9375 -2.125 0.9375 0 0 Z " fill="#496F66" transform="translate(109,384)"/>
<path d="M0 0 C2.03144641 0.93446535 4.03533587 1.93224776 6 3 C2.91190305 4.76462683 1.76687864 5 -2 5 C-2 3.68 -2 2.36 -2 1 C-1.34 0.67 -0.68 0.34 0 0 Z " fill="#D2E6E2" transform="translate(163,279)"/>
<path d="M0 0 C2.97 0 5.94 0 9 0 C9 0.66 9 1.32 9 2 C10.65 2.33 12.3 2.66 14 3 C14 3.33 14 3.66 14 4 C9.02906176 3.58846263 4.55491614 3.20399168 0 1 C0 0.67 0 0.34 0 0 Z " fill="#618378" transform="translate(306,139)"/>
<path d="M0 0 C0.99 0.33 1.98 0.66 3 1 C4.6875 4.5625 4.6875 4.5625 6 8 C5.34 8.66 4.68 9.32 4 10 C2.68 6.7 1.36 3.4 0 0 Z " fill="#678A7E" transform="translate(88,362)"/>
<path d="M0 0 C3.63 0.33 7.26 0.66 11 1 C11 1.33 11 1.66 11 2 C9.741875 2.185625 8.48375 2.37125 7.1875 2.5625 C6.12595703 2.71912109 6.12595703 2.71912109 5.04296875 2.87890625 C3 3 3 3 0 2 C0 1.34 0 0.68 0 0 Z " fill="#6D8C82" transform="translate(191,289)"/>
<path d="M0 0 C2.64 0 5.28 0 8 0 C7.67 0.99 7.34 1.98 7 3 C4.36 2.67 1.72 2.34 -1 2 C-0.67 1.34 -0.34 0.68 0 0 Z " fill="#D4E7E1" transform="translate(249,282)"/>
<path d="M0 0 C0.66 0.33 1.32 0.66 2 1 C0.71937515 2.7074998 -0.61767557 4.37373596 -2 6 C-2.66 6 -3.32 6 -4 6 C-4.33 6.66 -4.66 7.32 -5 8 C-4.64950425 4.75791433 -4.43778819 3.38472296 -1.9375 1.1875 C-1.298125 0.795625 -0.65875 0.40375 0 0 Z " fill="#D2E3DE" transform="translate(217,138)"/>
<path d="M0 0 C1.10844919 3.32534757 0.84454356 5.62182575 0 9 C-0.99 9.33 -1.98 9.66 -3 10 C-2.39009109 6.44219804 -1.4216319 3.3171411 0 0 Z " fill="#618A82" transform="translate(89,61)"/>
<path d="M0 0 C0.33 0 0.66 0 1 0 C1 2.31 1 4.62 1 7 C0.01 7.33 -0.98 7.66 -2 8 C-2.33 8.66 -2.66 9.32 -3 10 C-3.33 9.01 -3.66 8.02 -4 7 C-3.34 6.67 -2.68 6.34 -2 6 C-1.27306096 4.02111039 -0.60183749 2.02045442 0 0 Z " fill="#42685D" transform="translate(325,128)"/>
<path d="M0 0 C0.99 0 1.98 0 3 0 C3 0.66 3 1.32 3 2 C5.97 2.495 5.97 2.495 9 3 C9 3.33 9 3.66 9 4 C6.03 3.67 3.06 3.34 0 3 C0 2.01 0 1.02 0 0 Z " fill="#637E75" transform="translate(414,247)"/>
<path d="M0 0 C2.56616632 3.84924948 2.55097676 6.4349304 3 11 C0.39665076 8.28817788 0.00543309 7.10866187 -0.1875 3.25 C-0.125625 2.1775 -0.06375 1.105 0 0 Z " fill="#C0D8CF" transform="translate(212,162)"/>
<path d="M0 0 C2.31 0 4.62 0 7 0 C6.01 0.66 5.02 1.32 4 2 C3.01 3.485 3.01 3.485 2 5 C1.34 4.34 0.68 3.68 0 3 C0 2.01 0 1.02 0 0 Z " fill="#E1F1EE" transform="translate(219,103)"/>
<path d="M0 0 C0.33 0.66 0.66 1.32 1 2 C-0.25 3.5625 -0.25 3.5625 -2 5 C-4.1875 4.6875 -4.1875 4.6875 -6 4 C-4.60804085 1.2160817 -2.84424221 1.02101003 0 0 Z " fill="#3F6A5D" transform="translate(229,97)"/>
</svg>
