<?xml version="1.0" encoding="UTF-8"?>
<svg version="1.1" xmlns="http://www.w3.org/2000/svg" width="1024" height="1024">
<path d="M0 0 C337.92 0 675.84 0 1024 0 C1024 337.92 1024 675.84 1024 1024 C686.08 1024 348.16 1024 0 1024 C0 686.08 0 348.16 0 0 Z " fill="#FCFCFC" transform="translate(0,0)"/>
<path d="M0 0 C38.5305086 -0.71895595 79.84437008 -0.98065159 118 5 C118.495 5.495 118.495 5.495 119 6 C121.24683187 6.53261552 123.50665479 6.96301616 125.7734375 7.40234375 C128 8 128 8 131 10 C131.1875 12.625 131.1875 12.625 131 15 C122.76501335 18.58914241 114.07843118 22 105 22 C105 23.65 105 25.3 105 27 C110.570449 27.92347857 116.01148101 28.20687526 121.65234375 28.31640625 C122.55247696 28.33718735 123.45261017 28.35796844 124.38002014 28.37937927 C127.23244187 28.44433837 130.08494925 28.50350828 132.9375 28.5625 C134.88086794 28.60573633 136.82422748 28.64935219 138.76757812 28.69335938 C143.51163279 28.79996415 148.25577291 28.90137995 153 29 C151.01231423 33.15294416 149.08883282 36.67397843 145 39 C140.20737666 39.7899501 135.46126115 39.61000414 130.625 39.4375 C129.24117494 39.40899956 127.8573003 39.38281743 126.47338867 39.35888672 C122.9820109 39.2903462 119.49297552 39.18390759 116.00299072 39.06500244 C112.92305971 38.96505039 109.84238102 38.8975985 106.76171875 38.82421875 C104.61188068 38.7610813 102.46212989 38.69486716 100.3125 38.625 C98.8277417 38.5794397 98.8277417 38.5794397 97.31298828 38.53295898 C96.40145996 38.49372314 95.48993164 38.4544873 94.55078125 38.4140625 C93.76356689 38.3826416 92.97635254 38.3512207 92.1652832 38.31884766 C89.75717855 37.96424345 88.1371828 37.13871813 86 36 C84.824375 35.690625 83.64875 35.38125 82.4375 35.0625 C77.69851008 33.5977213 77.69851008 33.5977213 76 31 C76 29.68 76 28.36 76 27 C81 23 81 23 85 23 C85 22.34 85 21.68 85 21 C89.3825188 19.38080985 93.4231491 18.61126352 98.0625 18.125 C105.27771167 17.22577481 112.24595295 15.79779295 119 13 C119.33 12.34 119.66 11.68 120 11 C119.00097656 10.86722656 118.00195312 10.73445312 116.97265625 10.59765625 C115.68230469 10.42105469 114.39195312 10.24445312 113.0625 10.0625 C111.77472656 9.88847656 110.48695313 9.71445312 109.16015625 9.53515625 C106 9 106 9 105 8 C103.42771636 7.82381628 101.84814199 7.71209529 100.26831055 7.62695312 C98.75620247 7.54181458 98.75620247 7.54181458 97.21354675 7.45495605 C95.56676689 7.36897156 95.56676689 7.36897156 93.88671875 7.28125 C92.7656221 7.21844849 91.64452545 7.15564697 90.48945618 7.09094238 C86.88903349 6.88952539 83.28832019 6.69417245 79.6875 6.5 C76.09741014 6.3055518 72.50742784 6.10970484 68.91767883 5.90905762 C66.67975416 5.78401384 64.44162514 5.66256566 62.20329285 5.54504395 C60.67700005 5.4599054 60.67700005 5.4599054 59.11987305 5.37304688 C58.22576218 5.32498901 57.33165131 5.27693115 56.41044617 5.22741699 C54.16548441 5.01561286 52.18046629 4.54749696 50 4 C48.32180162 3.83484291 46.63952321 3.7088612 44.95605469 3.61108398 C43.95531921 3.55109726 42.95458374 3.49111053 41.92352295 3.42930603 C40.85047913 3.36884598 39.7774353 3.30838593 38.671875 3.24609375 C37.56773254 3.18092056 36.46359009 3.11574738 35.32598877 3.04859924 C31.80085662 2.84134397 28.27544489 2.6393586 24.75 2.4375 C22.3593547 2.29787311 19.96872941 2.15790333 17.578125 2.01757812 C11.71897623 1.67440682 5.85958926 1.3355613 0 1 C0 0.67 0 0.34 0 0 Z " fill="#E9E9E9" transform="translate(307,597)"/>
<path d="M0 0 C28.83286112 1.80877858 28.83286112 1.80877858 41.9375 3 C43.17536255 3.10610596 43.17536255 3.10610596 44.43823242 3.21435547 C49.17176512 3.66592095 53.42512941 4.64346574 58 6 C59.70341827 6.19502905 61.41286134 6.34666306 63.125 6.4375 C67.09876816 6.77672411 69.84644482 7.37203735 73 10 C73 10.66 73 11.32 73 12 C73.99 12.33 74.98 12.66 76 13 C76 13.99 76 14.98 76 16 C75.34 16 74.68 16 74 16 C73.34 17.32 72.68 18.64 72 20 C71.030625 19.525625 70.06125 19.05125 69.0625 18.5625 C64.80163851 16.71147001 60.59984394 16.30248407 56 16 C56 18.64 56 21.28 56 24 C50.90934177 26.05412525 46.48270676 27.32864815 41 28 C40.505 28.495 40.505 28.495 40 29 C35.36271318 29.44655355 31.24958003 29.5355343 26.9375 27.6875 C25 26 25 26 24 23 C21.99983534 21.79117904 21.99983534 21.79117904 20 21 C23.12840281 17.87159719 27.11154749 17.7080562 31.34765625 16.78125 C32.22292969 16.5234375 33.09820313 16.265625 34 16 C34.33 15.34 34.66 14.68 35 14 C30.31175694 12.18330582 25.97818126 11.65907722 21 11.5 C9.32436454 11.12690639 9.32436454 11.12690639 5.390625 7.52734375 C5.01421875 7.00269531 4.6378125 6.47804688 4.25 5.9375 C2.32497489 2.97993496 2.32497489 2.97993496 0 2 C0 1.34 0 0.68 0 0 Z " fill="#E8E8E8" transform="translate(560,629)"/>
<path d="M0 0 C2.47829131 2.41307311 3.22022095 4.11831759 4.375 7.3125 C3.63564209 7.39290527 2.89628418 7.47331055 2.13452148 7.55615234 C-1.30635699 7.93142357 -4.74696911 8.30905514 -8.1875 8.6875 C-9.4235498 8.82325439 -10.65959961 8.95900879 -11.93310547 9.09887695 C-18.3868322 9.81525163 -24.82175966 10.58356368 -31.25 11.5 C-39.28604351 12.59415238 -45.90192681 12.9416313 -53.625 10.3125 C-53.625 8.6625 -53.625 7.0125 -53.625 5.3125 C-47.24521062 3.19478286 -41.31147975 1.9493076 -34.625 1.3125 C-34.295 0.9825 -33.965 0.6525 -33.625 0.3125 C-7.60665305 -3.54102814 -7.60665305 -3.54102814 0 0 Z " fill="#E8E8E8" transform="translate(539.625,656.6875)"/>
<path d="M0 0 C0.66 0.33 1.32 0.66 2 1 C4.0892162 8.58505246 3.6152742 16.64454131 1 24 C1.66 24 2.32 24 3 24 C1.8141763 27.37503669 0.72426311 29.64722731 -2 32 C-2.66 31.67 -3.32 31.34 -4 31 C-3.505 32.485 -3.505 32.485 -3 34 C-6.19990508 36.74277578 -9.00499382 38.6302836 -13 40 C-13.495 39.505 -13.495 39.505 -14 39 C-16.3452769 38.44049636 -18.70155796 37.92670421 -21.0625 37.4375 C-22.35285156 37.16808594 -23.64320313 36.89867187 -24.97265625 36.62109375 C-25.97167969 36.41613281 -26.97070312 36.21117187 -28 36 C-28 35.34 -28 34.68 -28 34 C-26.783125 34.20625 -25.56625 34.4125 -24.3125 34.625 C-20.66442627 35.06483868 -18.16748123 35.11165416 -15 33 C-14.10613836 30.45224694 -14.10613836 30.45224694 -14 28 C-15.093125 28.04125 -16.18625 28.0825 -17.3125 28.125 C-21 28 -21 28 -24 26 C-25.92744369 25.6373883 -25.92744369 25.6373883 -28.01171875 25.5859375 C-28.76904297 25.54726563 -29.52636719 25.50859375 -30.30664062 25.46875 C-31.09232422 25.4378125 -31.87800781 25.406875 -32.6875 25.375 C-33.48478516 25.33632813 -34.28207031 25.29765625 -35.10351562 25.2578125 C-37.06863475 25.16367506 -39.0342854 25.08075368 -41 25 C-40.505 23.515 -40.505 23.515 -40 22 C-36.54168414 21.97105453 -33.08339928 21.95322 -29.625 21.9375 C-28.64015625 21.92912109 -27.6553125 21.92074219 -26.640625 21.91210938 C-25.22910156 21.90727539 -25.22910156 21.90727539 -23.7890625 21.90234375 C-22.48509521 21.89448853 -22.48509521 21.89448853 -21.15478516 21.88647461 C-19 22 -19 22 -17 23 C-17 23.66 -17 24.32 -17 25 C-16.2575 25.144375 -15.515 25.28875 -14.75 25.4375 C-12 26 -12 26 -10 26.8125 C-7.82023141 27.19741407 -7.82023141 27.19741407 -5.4375 25.6875 C-2.89999796 22.88974134 -2.33891223 21.38618675 -1.34765625 17.83203125 C-1.09121338 16.92815674 -0.83477051 16.02428223 -0.57055664 15.09301758 C-0.38227295 14.40232178 -0.19398926 13.71162598 0 13 C-4.29218017 13.30569436 -8.58362619 13.62070225 -12.875 13.9375 C-14.09832031 14.02451172 -15.32164062 14.11152344 -16.58203125 14.20117188 C-17.74863281 14.28818359 -18.91523437 14.37519531 -20.1171875 14.46484375 C-21.73536377 14.58267212 -21.73536377 14.58267212 -23.38623047 14.70288086 C-25.97814612 14.84601937 -25.97814612 14.84601937 -28 16 C-30.6723621 16.13415472 -33.32250488 16.04318541 -36 16 C-36 15.34 -36 14.68 -36 14 C-34.60974609 13.69255859 -34.60974609 13.69255859 -33.19140625 13.37890625 C-31.99386719 13.10949219 -30.79632812 12.84007812 -29.5625 12.5625 C-28.36753906 12.29566406 -27.17257812 12.02882813 -25.94140625 11.75390625 C-23.1295314 11.29933252 -23.1295314 11.29933252 -22 10 C-20.52697414 9.78574169 -19.04537853 9.62954945 -17.5625 9.5 C-16.66789063 9.4175 -15.77328125 9.335 -14.8515625 9.25 C-12.95052083 9.08333333 -11.04947917 8.91666667 -9.1484375 8.75 C-7.80652344 8.62625 -7.80652344 8.62625 -6.4375 8.5 C-5.19806641 8.39171875 -5.19806641 8.39171875 -3.93359375 8.28125 C-1.99702642 8.19634724 -1.99702642 8.19634724 -1 7 C-0.63239269 4.67182036 -0.29758419 2.3381615 0 0 Z " fill="#E9E9E9" transform="translate(592,379)"/>
<path d="M0 0 C0.721875 0.639375 1.44375 1.27875 2.1875 1.9375 C4.98191184 3.98673535 6.61663274 4.61332946 10 5 C7.125 9.875 7.125 9.875 6 11 C6.99 12.485 6.99 12.485 8 14 C6.84242188 14.38671875 5.68484375 14.7734375 4.4921875 15.171875 C2.95296954 15.69746162 1.41391564 16.22352886 -0.125 16.75 C-0.88554688 17.00265625 -1.64609375 17.2553125 -2.4296875 17.515625 C-7.15853219 19.1462611 -10.96587629 21.03562794 -15 24 C-15.66 23.67 -16.32 23.34 -17 23 C-16.34 21.68 -15.68 20.36 -15 19 C-14.01 19 -13.02 19 -12 19 C-11.67 17.68 -11.34 16.36 -11 15 C-9.6078125 15.1546875 -9.6078125 15.1546875 -8.1875 15.3125 C-7.135625 15.209375 -6.08375 15.10625 -5 15 C-3.2463436 12.66057656 -3.2463436 12.66057656 -2 10 C1 8 1 8 3 7 C3 6.34 3 5.68 3 5 C1.68 4.34 0.36 3.68 -1 3 C-0.67 2.01 -0.34 1.02 0 0 Z " fill="#EDEDED" transform="translate(581,361)"/>
<path d="M0 0 C0.66 0 1.32 0 2 0 C3.04884937 3.49616455 3.96432759 6.75921121 4.5 10.375 C4.665 11.24125 4.83 12.1075 5 13 C5.66 13.33 6.32 13.66 7 14 C6.67 14.66 6.34 15.32 6 16 C4.68 16 3.36 16 2 16 C2 17.32 2 18.64 2 20 C1.34 20 0.68 20 0 20 C-0.66 19.01 -1.32 18.02 -2 17 C-5.56769552 16.26393501 -5.56769552 16.26393501 -9 16 C-8.34 15.67 -7.68 15.34 -7 15 C-7 14.01 -7 13.02 -7 12 C-6.34 12 -5.68 12 -5 12 C-5 9.69 -5 7.38 -5 5 C-4.360625 4.731875 -3.72125 4.46375 -3.0625 4.1875 C-0.66868314 3.11332248 -0.66868314 3.11332248 0 0 Z " fill="#ECECEC" transform="translate(493,348)"/>
<path d="M0 0 C7.60344828 0.60344828 7.60344828 0.60344828 10 3 C10.125 5.625 10.125 5.625 10 8 C8.02 8.66 6.04 9.32 4 10 C3.67 12.97 3.34 15.94 3 19 C1.68 18.34 0.36 17.68 -1 17 C-1.75 13.875 -1.75 13.875 -2 11 C-1.34 11 -0.68 11 0 11 C-0.08378906 10.28972656 -0.16757812 9.57945312 -0.25390625 8.84765625 C-0.35574219 7.92855469 -0.45757813 7.00945312 -0.5625 6.0625 C-0.66691406 5.14597656 -0.77132812 4.22945312 -0.87890625 3.28515625 C-0.91886719 2.53105469 -0.95882812 1.77695313 -1 1 C-0.67 0.67 -0.34 0.34 0 0 Z " fill="#EBEBEB" transform="translate(517,225)"/>
<path d="M0 0 C1.29550781 0.07863281 2.59101563 0.15726562 3.92578125 0.23828125 C7.44694428 0.6587732 10.38351624 1.43249842 13.6875 2.6875 C13.6875 3.0175 13.6875 3.3475 13.6875 3.6875 C10.83326808 3.71468316 7.97929985 3.73442705 5.125 3.75 C3.92520508 3.76256836 3.92520508 3.76256836 2.70117188 3.77539062 C-2.08413104 3.79492247 -6.59395051 3.49187018 -11.3125 2.6875 C-9.13520167 -1.66709665 -4.17023216 -0.27636553 0 0 Z " fill="#ECECEC" transform="translate(440.3125,388.3125)"/>
<path d="M0 0 C0.33 0.66 0.66 1.32 1 2 C-0.2739589 4.03833424 -1.61061923 6.03852126 -3 8 C-3.66 8 -4.32 8 -5 8 C-5 6.02 -5 4.04 -5 2 C-3.35 1.34 -1.7 0.68 0 0 Z M-6 8 C-5.328125 9.78515625 -5.328125 9.78515625 -5 12 C-6.109375 13.74609375 -6.109375 13.74609375 -7.75 15.4375 C-10.25041296 18.13562003 -12.22821348 20.75172471 -14 24 C-14.66 23.01 -15.32 22.02 -16 21 C-14.87970983 19.51726301 -13.75361382 18.03891114 -12.625 16.5625 C-11.99851562 15.73878906 -11.37203125 14.91507812 -10.7265625 14.06640625 C-9 12 -9 12 -7 11 C-6.67 10.01 -6.34 9.02 -6 8 Z " fill="#F1F1F1" transform="translate(480,332)"/>
<path d="M0 0 C0.94875 0.165 1.8975 0.33 2.875 0.5 C5.80168901 1.0526635 5.80168901 1.0526635 8 1 C8.66 2.65 9.32 4.3 10 6 C8.9375 7.5625 8.9375 7.5625 7 9 C3.3125 8.6875 3.3125 8.6875 0 8 C0 5.36 0 2.72 0 0 Z " fill="#F9F9F9" transform="translate(350,431)"/>
<path d="M0 0 C2.625 -0.1875 2.625 -0.1875 5 0 C4.8125 1.8125 4.8125 1.8125 4 4 C2.34151823 5.01351664 0.67334039 6.01120795 -1 7 C-2.81306766 8.91133691 -4.37912573 10.91601879 -6 13 C-6.66 12.67 -7.32 12.34 -8 12 C-8.66 12.66 -9.32 13.32 -10 14 C-10.33 12.35 -10.66 10.7 -11 9 C-10.443125 8.938125 -9.88625 8.87625 -9.3125 8.8125 C-4.98289676 7.29128805 -2.47687732 3.71531598 0 0 Z " fill="#F2F2F2" transform="translate(543,276)"/>
<path d="M0 0 C0.99 0 1.98 0 3 0 C2.773125 0.969375 2.54625 1.93875 2.3125 2.9375 C1.58971081 7.70400168 3.24314799 11.62275855 5 16 C3.68 15.34 2.36 14.68 1 14 C1 13.34 1 12.68 1 12 C-0.98 12.99 -0.98 12.99 -3 14 C-4 12 -4 12 -3.22265625 9.1796875 C-2.83980469 8.08914063 -2.45695312 6.99859375 -2.0625 5.875 C-1.68222656 4.77929688 -1.30195313 3.68359375 -0.91015625 2.5546875 C-0.60980469 1.71164062 -0.30945313 0.86859375 0 0 Z " fill="#F2F2F2" transform="translate(508,284)"/>
<path d="M0 0 C2.375 0.875 2.375 0.875 4.375 3.875 C2.6875 5.4375 2.6875 5.4375 0.375 6.875 C-2.32309776 6.61803831 -4.20850693 6.08324654 -6.625 4.875 C-6.625 2.875 -6.625 2.875 -4.9375 1.1875 C-2.625 -0.125 -2.625 -0.125 0 0 Z " fill="#E9E9E9" transform="translate(519.625,615.125)"/>
<path d="M0 0 C0.66 0 1.32 0 2 0 C1.28571429 8.57142857 1.28571429 8.57142857 -2 12 C-6 5.25 -6 5.25 -6 3 C-5.01 3 -4.02 3 -3 3 C-1.97980427 2.0206121 -0.97850195 1.02104551 0 0 Z " fill="#EFEFEF" transform="translate(542,329)"/>
<path d="M0 0 C0.99 0 1.98 0 3 0 C3 4 3 4 2 6.1875 C-1.07139734 8.97095384 -3.91736795 8.73228642 -8 9 C-7.67 7.68 -7.34 6.36 -7 5 C-5.35 5 -3.7 5 -2 5 C-2 4.34 -2 3.68 -2 3 C-1.34 3 -0.68 3 0 3 C0 2.01 0 1.02 0 0 Z " fill="#F0F0F0" transform="translate(518,398)"/>
<path d="M0 0 C1.65 0.33 3.3 0.66 5 1 C-1.15034169 8.48291572 -1.15034169 8.48291572 -5 11 C-5.66 10.34 -6.32 9.68 -7 9 C-6.071875 8.1028125 -6.071875 8.1028125 -5.125 7.1875 C-2.96227949 4.96117007 -1.38869468 2.77738935 0 0 Z " fill="#F0F0F0" transform="translate(566,340)"/>
<path d="M0 0 C2 2 2 2 2.01171875 4.06640625 C1.85123047 5.30197266 1.85123047 5.30197266 1.6875 6.5625 C1.57921875 7.44808594 1.4709375 8.33367187 1.359375 9.24609375 C1.24078125 10.15488281 1.1221875 11.06367188 1 12 C0.80938744 13.70798884 0.62163871 15.41630109 0.4375 17.125 C0.293125 18.40375 0.14875 19.6825 0 21 C-0.33 21 -0.66 21 -1 21 C-2.23649903 13.5810058 -1.50382815 7.34514411 0 0 Z " fill="#F0F0F0" transform="translate(458,365)"/>
<path d="M0 0 C2.9296875 0.390625 2.9296875 0.390625 5.859375 0.78125 C8.30458395 1.06777357 8.30458395 1.06777357 12 1 C12.99 1.66 13.98 2.32 15 3 C14.01 3.99 13.02 4.98 12 6 C11.34 5.01 10.68 4.02 10 3 C7.69 3.33 5.38 3.66 3 4 C3 3.01 3 2.02 3 1 C2.01 0.67 1.02 0.34 0 0 Z " fill="#F5F5F5" transform="translate(481,403)"/>
<path d="M0 0 C-0.33 0.99 -0.66 1.98 -1 3 C-2.2065625 2.9690625 -2.2065625 2.9690625 -3.4375 2.9375 C-5.93354885 2.70366379 -5.93354885 2.70366379 -7 4 C-7.33 4.99 -7.66 5.98 -8 7 C-8.66 7 -9.32 7 -10 7 C-10.125 4.625 -10.125 4.625 -10 2 C-6.80505194 -1.19494806 -4.22040044 -1.35655728 0 0 Z " fill="#F0F0F0" transform="translate(551,377)"/>
<path d="M0 0 C0.66 0.33 1.32 0.66 2 1 C1.34 2.32 0.68 3.64 0 5 C-0.66 3.68 -1.32 2.36 -2 1 C-1.34 0.67 -0.68 0.34 0 0 Z M-4 2 C-3.34 2.33 -2.68 2.66 -2 3 C-3.65 4.98 -5.3 6.96 -7 9 C-7.33 8.01 -7.66 7.02 -8 6 C-6.68 4.68 -5.36 3.36 -4 2 Z M-3 5 C-2.01 5.495 -2.01 5.495 -1 6 C-1.99 6.495 -1.99 6.495 -3 7 C-3 6.34 -3 5.68 -3 5 Z " fill="#EFEFEF" transform="translate(548,599)"/>
<path d="M0 0 C1.91635217 -0.05423638 3.83314925 -0.09289963 5.75 -0.125 C7.35101562 -0.15980469 7.35101562 -0.15980469 8.984375 -0.1953125 C11.92470106 -0.00487687 13.52361878 0.47329896 16 2 C16 2.66 16 3.32 16 4 C13.625 4.125 13.625 4.125 11 4 C10.34 3.34 9.68 2.68 9 2 C6.78927023 1.75746187 6.78927023 1.75746187 4.375 1.875 C3.14910156 1.90207031 3.14910156 1.90207031 1.8984375 1.9296875 C0.95871094 1.96449219 0.95871094 1.96449219 0 2 C0 1.34 0 0.68 0 0 Z " fill="#E8E8E8" transform="translate(564,274)"/>
<path d="M0 0 C0.66 0.33 1.32 0.66 2 1 C1.01 2.485 1.01 2.485 0 4 C-0.165 4.825 -0.33 5.65 -0.5 6.5 C-1 9 -1 9 -3 12 C-3.66 11.67 -4.32 11.34 -5 11 C-4.54917531 9.53932801 -4.08906463 8.08151968 -3.625 6.625 C-3.36976563 5.81289063 -3.11453125 5.00078125 -2.8515625 4.1640625 C-2 2 -2 2 0 0 Z " fill="#F0F0F0" transform="translate(508,321)"/>
<path d="M0 0 C0.99 0 1.98 0 3 0 C1.125 5.75 1.125 5.75 0 8 C-1.32 7.67 -2.64 7.34 -4 7 C-4 6.01 -4 5.02 -4 4 C-3.01 4 -2.02 4 -1 4 C-0.67 2.68 -0.34 1.36 0 0 Z " fill="#ECECEC" transform="translate(495,272)"/>
<path d="M0 0 C0.66 0 1.32 0 2 0 C3.3271261 3.9813783 3.06915913 7.85045227 3 12 C2.01 12.495 2.01 12.495 1 13 C0.67 8.71 0.34 4.42 0 0 Z " fill="#F3F3F3" transform="translate(549,360)"/>
<path d="M0 0 C0.99 0 1.98 0 3 0 C3 0.66 3 1.32 3 2 C4.2065625 2.433125 4.2065625 2.433125 5.4375 2.875 C8 4 8 4 9 6 C8.34 6 7.68 6 7 6 C6.67 6.66 6.34 7.32 6 8 C4 7 4 7 3 4 C2.01 3.34 1.02 2.68 0 2 C0 1.34 0 0.68 0 0 Z " fill="#EDEDED" transform="translate(485,582)"/>
<path d="M0 0 C3.36591866 1.44253657 5.51047079 3.33264727 8 6 C7.67 6.99 7.34 7.98 7 9 C5.2925002 7.71937515 3.62626404 6.38232443 2 5 C2 4.34 2 3.68 2 3 C1.34 3 0.68 3 0 3 C0 2.01 0 1.02 0 0 Z " fill="#F5F5F5" transform="translate(487,612)"/>
<path d="M0 0 C-3.19990508 2.74277578 -6.00499382 4.6302836 -10 6 C-10 5.01 -10 4.02 -10 3 C-3.375 -1.125 -3.375 -1.125 0 0 Z " fill="#F2F2F2" transform="translate(589,413)"/>
<path d="M0 0 C0.66 0.33 1.32 0.66 2 1 C1.67 3.64 1.34 6.28 1 9 C0.01 9 -0.98 9 -2 9 C-2.25 3.375 -2.25 3.375 0 0 Z " fill="#F6F5F6" transform="translate(555,355)"/>
<path d="M0 0 C0.99 0.99 1.98 1.98 3 3 C2.01 3.66 1.02 4.32 0 5 C-1.19232613 7.05003955 -1.19232613 7.05003955 -2 9 C-2.33 9 -2.66 9 -3 9 C-2.4140625 2.84765625 -2.4140625 2.84765625 -2 1 C-1.34 0.67 -0.68 0.34 0 0 Z " fill="#F4F4F4" transform="translate(507,348)"/>
<path d="M0 0 C0.33 0.99 0.66 1.98 1 3 C2.32 2.67 3.64 2.34 5 2 C4.25 3.9375 4.25 3.9375 3 6 C0.875 6.75 0.875 6.75 -1 7 C-1.04254356 5.00045254 -1.04080783 2.99958364 -1 1 C-0.67 0.67 -0.34 0.34 0 0 Z " fill="#F3F3F3" transform="translate(526,315)"/>
<path d="M0 0 C1.32 0.33 2.64 0.66 4 1 C3.50628906 1.37511719 3.01257813 1.75023437 2.50390625 2.13671875 C-1.62913755 5.3284978 -1.62913755 5.3284978 -3.9375 9.875 C-3.958125 10.57625 -3.97875 11.2775 -4 12 C-4.33 12 -4.66 12 -5 12 C-5.25 6.375 -5.25 6.375 -3 3 C-2.34 3 -1.68 3 -1 3 C-0.67 2.01 -0.34 1.02 0 0 Z " fill="#F6F6F6" transform="translate(574,278)"/>
<path d="M0 0 C2.475 0.495 2.475 0.495 5 1 C5 2.32 5 3.64 5 5 C3.35 4.67 1.7 4.34 0 4 C0 2.68 0 1.36 0 0 Z " fill="#EFEFEF" transform="translate(506,624)"/>
<path d="M0 0 C0.99 0 1.98 0 3 0 C1.8141763 3.37503669 0.72426311 5.64722731 -2 8 C-2.66 7.34 -3.32 6.68 -4 6 C-2.1875 3 -2.1875 3 0 0 Z " fill="#F2F2F2" transform="translate(592,403)"/>
<path d="M0 0 C1.98 0 3.96 0 6 0 C6.33 0.99 6.66 1.98 7 3 C4.39417629 3.93065133 3.35801776 4.14917407 0.75 3.0625 C0.1725 2.711875 -0.405 2.36125 -1 2 C-0.67 1.34 -0.34 0.68 0 0 Z " fill="#EFEFEF" transform="translate(521,248)"/>
<path d="M0 0 C0.66 0 1.32 0 2 0 C2 1.32 2 2.64 2 4 C-1 6.25 -1 6.25 -4 8 C-4.33 6.68 -4.66 5.36 -5 4 C-4.360625 3.71125 -3.72125 3.4225 -3.0625 3.125 C-0.84793921 2.17176549 -0.84793921 2.17176549 0 0 Z " fill="#EFEFEF" transform="translate(497,304)"/>
<path d="M0 0 C1.32 1.32 2.64 2.64 4 4 C3.34 5.65 2.68 7.3 2 9 C1.34 9 0.68 9 0 9 C0 6.03 0 3.06 0 0 Z " fill="#E8E8E8" transform="translate(357,467)"/>
<path d="M0 0 C0.79921875 0.00902344 1.5984375 0.01804687 2.421875 0.02734375 C3.02515625 0.03894531 3.6284375 0.05054688 4.25 0.0625 C4.25 0.3925 4.25 0.7225 4.25 1.0625 C1.94 1.0625 -0.37 1.0625 -2.75 1.0625 C-2.75 1.7225 -2.75 2.3825 -2.75 3.0625 C-4.4 3.0625 -6.05 3.0625 -7.75 3.0625 C-8.08 2.4025 -8.41 1.7425 -8.75 1.0625 C-5.75519083 0.1901588 -3.11424089 -0.04579766 0 0 Z " fill="#ECECEC" transform="translate(512.75,440.9375)"/>
<path d="M0 0 C-0.66 0.66 -1.32 1.32 -2 2 C-2.66 1.67 -3.32 1.34 -4 1 C-5.70363822 0.77377919 -7.41328701 0.59111527 -9.125 0.4375 C-10.03507813 0.35371094 -10.94515625 0.26992188 -11.8828125 0.18359375 C-12.58148437 0.12300781 -13.28015625 0.06242187 -14 0 C-14 -0.33 -14 -0.66 -14 -1 C-8.58264203 -1.93402724 -5.19548425 -2.20808081 0 0 Z " fill="#F5F5F5" transform="translate(572,417)"/>
<path d="M0 0 C7.38461538 -0.36923077 7.38461538 -0.36923077 10.5 1.5 C10.995 1.995 11.49 2.49 12 3 C10.56163249 2.88541307 9.12429034 2.75790884 7.6875 2.625 C6.88699219 2.55539062 6.08648438 2.48578125 5.26171875 2.4140625 C3 2 3 2 0 0 Z " fill="#F0F0F0" transform="translate(548,409)"/>
<path d="M0 0 C0.66 0.33 1.32 0.66 2 1 C2.33 1.99 2.66 2.98 3 4 C1.02 4.99 1.02 4.99 -1 6 C-1.99 5.01 -2.98 4.02 -4 3 C-2.68 2.67 -1.36 2.34 0 2 C0 1.34 0 0.68 0 0 Z " fill="#EFEFEF" transform="translate(578,353)"/>
<path d="M0 0 C1.32 0.66 2.64 1.32 4 2 C3.67 3.32 3.34 4.64 3 6 C2.01 5.67 1.02 5.34 0 5 C-0.33 4.01 -0.66 3.02 -1 2 C-0.67 1.34 -0.34 0.68 0 0 Z " fill="#ECECEC" transform="translate(489,256)"/>
<path d="M0 0 C2.31 0.33 4.62 0.66 7 1 C7 2.32 7 3.64 7 5 C4.625 4.75 4.625 4.75 2 4 C0.6875 1.9375 0.6875 1.9375 0 0 Z " fill="#F3F3F3" transform="translate(591,367)"/>
<path d="M0 0 C0.78375 0.04125 1.5675 0.0825 2.375 0.125 C2.375 0.785 2.375 1.445 2.375 2.125 C1.385 2.455 0.395 2.785 -0.625 3.125 C-1.83382096 5.12516466 -1.83382096 5.12516466 -2.625 7.125 C-2.625 5.805 -2.625 4.485 -2.625 3.125 C-3.285 2.795 -3.945 2.465 -4.625 2.125 C-2.625 0.125 -2.625 0.125 0 0 Z " fill="#EFEFEF" transform="translate(437.625,348.875)"/>
<path d="M0 0 C0.99 0.33 1.98 0.66 3 1 C4.1875 4.0625 4.1875 4.0625 5 7 C4.01 7 3.02 7 2 7 C0 4 0 4 0 0 Z " fill="#F2F2F2" transform="translate(568,362)"/>
<path d="M0 0 C1.32 0.33 2.64 0.66 4 1 C4 1.66 4 2.32 4 3 C3.34 3 2.68 3 2 3 C1.67 4.65 1.34 6.3 1 8 C0.67 8 0.34 8 0 8 C0 5.36 0 2.72 0 0 Z " fill="#E9E9E9" transform="translate(350,431)"/>
<path d="M0 0 C0.99 0.33 1.98 0.66 3 1 C2.67 1.99 2.34 2.98 2 4 C-0.0625 4.6875 -0.0625 4.6875 -2 5 C-2 3.68 -2 2.36 -2 1 C-1.34 0.67 -0.68 0.34 0 0 Z " fill="#F5F5F5" transform="translate(538,389)"/>
<path d="M0 0 C0.66 0 1.32 0 2 0 C3.76462683 3.08809695 4 4.23312136 4 8 C3.01 7.67 2.02 7.34 1 7 C0.67 4.69 0.34 2.38 0 0 Z " fill="#F1F1F1" transform="translate(471,324)"/>
</svg>
